HIERARCHY
ROOT Hips
{
  OFFSET 0.18596 81.932 4.35203
  CHANNELS 6 Xposition Yposition Zposition Zrotation Xrotation Yrotation
  JOINT Spine
  {
    OFFSET 0 10.1816 0.1315
    CHANNELS 6 Xposition Yposition Zposition Zrotation Xrotation Yrotation
    JOINT Spine1
    {
      OFFSET 0 10.0835 -1.0008
      CHANNELS 6 Xposition Yposition Zposition Zrotation Xrotation Yrotation
      JOINT Spine2
      {
        OFFSET 0 9.1 -1.3734
        CHANNELS 6 Xposition Yposition Zposition Zrotation Xrotation Yrotation
        JOINT Neck
        {
          OFFSET 0 16.6717 -2.5162
          CHANNELS 6 Xposition Yposition Zposition Zrotation Xrotation Yrotation
          JOINT Head
          {
            OFFSET 0 9.6179 1.685
            CHANNELS 6 Xposition Yposition Zposition Zrotation Xrotation Yrotation
            JOINT HeadTop_End
            {
              OFFSET 0 17.8152 2.585
              CHANNELS 6 Xposition Yposition Zposition Zrotation Xrotation Yrotation
              End Site
              {
                OFFSET 0 0 0
              }
            }
            JOINT LeftEye
            {
              OFFSET 3.0676 6.4095 9.2836
              CHANNELS 6 Xposition Yposition Zposition Zrotation Xrotation Yrotation
              End Site
              {
                OFFSET 0 0 0
              }
            }
            JOINT RightEye
            {
              OFFSET -3.0676 6.4095 9.2835
              CHANNELS 6 Xposition Yposition Zposition Zrotation Xrotation Yrotation
              End Site
              {
                OFFSET 0 0 0
              }
            }
          }
        }
        JOINT LeftShoulder
        {
          OFFSET 4.5704 10.946 -2.628
          CHANNELS 6 Xposition Yposition Zposition Zrotation Xrotation Yrotation
          JOINT LeftArm
          {
            OFFSET 10.5924 -0.5246 -2.2321
            CHANNELS 6 Xposition Yposition Zposition Zrotation Xrotation Yrotation
            JOINT LeftForeArm
            {
              OFFSET 27.8415 -0.0001 0
              CHANNELS 6 Xposition Yposition Zposition Zrotation Xrotation Yrotation
              JOINT LeftHand
              {
                OFFSET 28.3288 0 0
                CHANNELS 6 Xposition Yposition Zposition Zrotation Xrotation Yrotation
                JOINT LeftHandThumb1
                {
                  OFFSET 2.4661 -1.575 2.6824
                  CHANNELS 6 Xposition Yposition Zposition Zrotation Xrotation Yrotation
                  JOINT LeftHandThumb2
                  {
                    OFFSET 3.2298 -1.8647 1.8647
                    CHANNELS 6 Xposition Yposition Zposition Zrotation Xrotation Yrotation
                    JOINT LeftHandThumb3
                    {
                      OFFSET 2.6526 -1.5315 1.5315
                      CHANNELS 6 Xposition Yposition Zposition Zrotation Xrotation Yrotation
                      End Site
                      {
                        OFFSET 1.9546 -1.1285 1.1285
                      }
                    }
                  }
                }
                JOINT LeftHandIndex1
                {
                  OFFSET 9.1093 -0.5171 2.2601
                  CHANNELS 6 Xposition Yposition Zposition Zrotation Xrotation Yrotation
                  JOINT LeftHandIndex2
                  {
                    OFFSET 3.6764 0 0
                    CHANNELS 6 Xposition Yposition Zposition Zrotation Xrotation Yrotation
                    JOINT LeftHandIndex3
                    {
                      OFFSET 2.8831 0 0
                      CHANNELS 6 Xposition Yposition Zposition Zrotation Xrotation Yrotation
                      End Site
                      {
                        OFFSET 2.3927 0 0
                      }
                    }
                  }
                }
                JOINT LeftHandMiddle1
                {
                  OFFSET 9.5334 0 0
                  CHANNELS 6 Xposition Yposition Zposition Zrotation Xrotation Yrotation
                  JOINT LeftHandMiddle2
                  {
                    OFFSET 3.6982 0 0
                    CHANNELS 6 Xposition Yposition Zposition Zrotation Xrotation Yrotation
                    JOINT LeftHandMiddle3
                    {
                      OFFSET 2.9509 0 0
                      CHANNELS 6 Xposition Yposition Zposition Zrotation Xrotation Yrotation
                      End Site
                      {
                        OFFSET 2.8339 0 0
                      }
                    }
                  }
                }
                JOINT LeftHandRing1
                {
                  OFFSET 9.1045 -0.0439 -1.8651
                  CHANNELS 6 Xposition Yposition Zposition Zrotation Xrotation Yrotation
                  JOINT LeftHandRing2
                  {
                    OFFSET 3.154 0 0
                    CHANNELS 6 Xposition Yposition Zposition Zrotation Xrotation Yrotation
                    JOINT LeftHandRing3
                    {
                      OFFSET 2.9377 0 0
                      CHANNELS 6 Xposition Yposition Zposition Zrotation Xrotation Yrotation
                      End Site
                      {
                        OFFSET 2.6475 0 0
                      }
                    }
                  }
                }
                JOINT LeftHandPinky1
                {
                  OFFSET 8.0778 -0.4887 -3.8061
                  CHANNELS 6 Xposition Yposition Zposition Zrotation Xrotation Yrotation
                  JOINT LeftHandPinky2
                  {
                    OFFSET 3.6 0 0
                    CHANNELS 6 Xposition Yposition Zposition Zrotation Xrotation Yrotation
                    JOINT LeftHandPinky3
                    {
                      OFFSET 2.1142 0 0
                      CHANNELS 6 Xposition Yposition Zposition Zrotation Xrotation Yrotation
                      End Site
                      {
                        OFFSET 1.9757 0 0
                      }
                    }
                  }
                }
              }
            }
          }
        }
        JOINT RightShoulder
        {
          OFFSET -4.57 10.9462 -2.628
          CHANNELS 6 Xposition Yposition Zposition Zrotation Xrotation Yrotation
          JOINT RightArm
          {
            OFFSET -10.5928 -0.5248 -2.2321
            CHANNELS 6 Xposition Yposition Zposition Zrotation Xrotation Yrotation
            JOINT RightForeArm
            {
              OFFSET -27.8415 0 0
              CHANNELS 6 Xposition Yposition Zposition Zrotation Xrotation Yrotation
              JOINT RightHand
              {
                OFFSET -28.3288 0 0.0001
                CHANNELS 6 Xposition Yposition Zposition Zrotation Xrotation Yrotation
                JOINT RightHandPinky1
                {
                  OFFSET -8.0767 -0.4885 -3.806
                  CHANNELS 6 Xposition Yposition Zposition Zrotation Xrotation Yrotation
                  JOINT RightHandPinky2
                  {
                    OFFSET -3.6 0 0.0001
                    CHANNELS 6 Xposition Yposition Zposition Zrotation Xrotation Yrotation
                    JOINT RightHandPinky3
                    {
                      OFFSET -2.1142 0 0
                      CHANNELS 6 Xposition Yposition Zposition Zrotation Xrotation Yrotation
                      End Site
                      {
                        OFFSET -1.9757 0 0
                      }
                    }
                  }
                }
                JOINT RightHandRing1
                {
                  OFFSET -9.1036 -0.0439 -1.8651
                  CHANNELS 6 Xposition Yposition Zposition Zrotation Xrotation Yrotation
                  JOINT RightHandRing2
                  {
                    OFFSET -3.154 0 0
                    CHANNELS 6 Xposition Yposition Zposition Zrotation Xrotation Yrotation
                    JOINT RightHandRing3
                    {
                      OFFSET -2.9377 0 0
                      CHANNELS 6 Xposition Yposition Zposition Zrotation Xrotation Yrotation
                      End Site
                      {
                        OFFSET -2.6475 0 0
                      }
                    }
                  }
                }
                JOINT RightHandMiddle1
                {
                  OFFSET -9.5325 0 0
                  CHANNELS 6 Xposition Yposition Zposition Zrotation Xrotation Yrotation
                  JOINT RightHandMiddle2
                  {
                    OFFSET -3.6982 0 0
                    CHANNELS 6 Xposition Yposition Zposition Zrotation Xrotation Yrotation
                    JOINT RightHandMiddle3
                    {
                      OFFSET -2.9509 0 0
                      CHANNELS 6 Xposition Yposition Zposition Zrotation Xrotation Yrotation
                      End Site
                      {
                        OFFSET -2.8339 0 0.0001
                      }
                    }
                  }
                }
                JOINT RightHandIndex1
                {
                  OFFSET -9.1083 -0.5168 2.2601
                  CHANNELS 6 Xposition Yposition Zposition Zrotation Xrotation Yrotation
                  JOINT RightHandIndex2
                  {
                    OFFSET -3.6764 0 0
                    CHANNELS 6 Xposition Yposition Zposition Zrotation Xrotation Yrotation
                    JOINT RightHandIndex3
                    {
                      OFFSET -2.8831 0 0
                      CHANNELS 6 Xposition Yposition Zposition Zrotation Xrotation Yrotation
                      End Site
                      {
                        OFFSET -2.3927 0 0
                      }
                    }
                  }
                }
                JOINT RightHandThumb1
                {
                  OFFSET -2.4648 -1.5727 2.6826
                  CHANNELS 6 Xposition Yposition Zposition Zrotation Xrotation Yrotation
                  JOINT RightHandThumb2
                  {
                    OFFSET -3.2298 -1.8647 1.8647
                    CHANNELS 6 Xposition Yposition Zposition Zrotation Xrotation Yrotation
                    JOINT RightHandThumb3
                    {
                      OFFSET -2.6526 -1.5314 1.5314
                      CHANNELS 6 Xposition Yposition Zposition Zrotation Xrotation Yrotation
                      End Site
                      {
                        OFFSET -1.9546 -1.1285 1.1285
                      }
                    }
                  }
                }
              }
            }
          }
        }
      }
    }
  }
  JOINT LeftUpLeg
  {
    OFFSET 8.2078 -6.7517 -1.5996
    CHANNELS 6 Xposition Yposition Zposition Zrotation Xrotation Yrotation
    JOINT LeftLeg
    {
      OFFSET 0 -44.3705 0.2846
      CHANNELS 6 Xposition Yposition Zposition Zrotation Xrotation Yrotation
      JOINT LeftFoot
      {
        OFFSET 0 -44.4279 -2.9822
        CHANNELS 6 Xposition Yposition Zposition Zrotation Xrotation Yrotation
        JOINT LeftToeBase
        {
          OFFSET 0 -8.7287 10.7106
          CHANNELS 6 Xposition Yposition Zposition Zrotation Xrotation Yrotation
          End Site
          {
            OFFSET 0 -0.0007 9.2781
          }
        }
      }
    }
  }
  JOINT RightUpLeg
  {
    OFFSET -8.2078 -6.7517 -1.5996
    CHANNELS 6 Xposition Yposition Zposition Zrotation Xrotation Yrotation
    JOINT RightLeg
    {
      OFFSET 0 -44.3705 0.2862
      CHANNELS 6 Xposition Yposition Zposition Zrotation Xrotation Yrotation
      JOINT RightFoot
      {
        OFFSET 0 -44.4277 -2.9838
        CHANNELS 6 Xposition Yposition Zposition Zrotation Xrotation Yrotation
        JOINT RightToeBase
        {
          OFFSET 0 -8.7287 10.7106
          CHANNELS 6 Xposition Yposition Zposition Zrotation Xrotation Yrotation
          End Site
          {
            OFFSET 0 -0.0007 9.2781
          }
        }
      }
    }
  }
}
MOTION
Frames:	4
Frame Time:	0.0333333
0.785787 102.32 22.2084 0.202056 4.53882 -1.44105 2.22045e-016 10.1816 0.1315 -0.0396864 -0.798568 -0.34981 0 10.0835 -1.0008 0.364087 1.65755 -0.350497 0 9.1 -1.3734 0.362938 1.65751 -0.353699 0 16.6717 -2.5162 4.04114 -19.1685 -0.0594712 0 9.6179 1.685 -7.33954 16.8272 4.30232 8.88178e-016 17.8152 2.585 -1.0871e-015 0 4.96962e-017 3.0676 6.4095 9.2836 -1.0871e-015 0 4.96962e-017 -3.0676 6.4095 9.2835 -1.0871e-015 0 4.96962e-017 4.5704 10.946 -2.628 22.7119 5.5704 15.947 10.5924 -0.5246 -2.2321 -20.6967 -41.6633 -111.652 27.8415 -0.0001 -7.10543e-015 -0.00020846 6.52022e-007 -2.5816e-007 28.3288 0 -7.10543e-015 -6.833 -23.084 0.47389 2.4661 -1.575 2.6824 -1.71884 54.9998 -56.8187 3.2298 -1.8647 1.8647 -19.3643 15.662 29.4066 2.6526 -1.5315 1.5315 19.1102 17.2479 34.3983 9.1093 -0.5171 2.2601 -67.5315 -5.77602 3.52955 3.6764 -2.84217e-014 -3.55271e-015 -36.5932 -1.15322 3.48675 2.8831 -1.42109e-014 0 -40.0214 -1.37036 3.76171 9.5334 0 -3.55271e-015 -68.5773 -5.8963 4.49519 3.6982 2.84217e-014 -1.77636e-015 -38.9454 -1.30044 3.6768 2.9509 0 0 -48.9008 -2.00559 4.40927 9.1045 -0.0439 -1.8651 -71.7424 -6.25053 7.01614 3.154 0 0 -34.3901 -1.02252 3.30344 2.9377 0 -8.88178e-016 -49.588 -2.05882 4.45517 8.0778 -0.4887 -3.8061 -65.7952 -10.4673 10.41 3.6 0 0 -28.3147 -0.699754 2.77361 2.1142 0 8.88178e-016 -28.9033 -0.728546 2.8264 -4.57 10.9462 -2.628 -24.1306 3.07727 -9.50987 -10.5928 -0.5248 -2.2321 22.6867 -39.9763 105.74 -27.8415 -4.26326e-014 0 1.43938e-007 9.77105e-007 0.000554292 -28.3288 0 0.0001 23.3979 -27.7537 14.4688 -8.0767 -0.4885 -3.806 49.6969 -3.35554 -4.7122 -3.6 2.84217e-014 0.0001 34.6856 -0.824226 -2.64051 -2.1142 0 0 40.8318 -1.13013 -3.03564 -9.1036 -0.0439 -1.8651 59.5799 -4.23685 -2.36868 -3.154 0 -3.55271e-015 35.6736 -0.871266 -2.70726 -2.9377 0 7.10543e-015 57.7771 -2.16846 -3.92896 -9.5325 0 -3.55271e-015 58.5969 -4.1495 -2.88199 -3.6982 0 3.55271e-015 43.475 -1.27397 -3.19457 -2.9509 -1.42109e-014 7.10543e-015 53.037 -1.852 -3.71258 -9.1083 -0.5168 2.2601 49.5381 -2.92003 -4.27504 -3.6764 -2.84217e-014 7.10543e-015 46.323 -1.43699 -3.35822 -2.8831 1.42109e-014 3.55271e-015 35.0659 -0.842756 -2.66709 -2.4648 -1.5727 2.6826 17.308 48.9772 22.468 -3.2298 -1.8647 1.8647 -4.88454 18.5535 -19.2694 -2.6526 -1.5314 1.5314 -18.2497 15.4703 -32.4138 8.2078 -6.7517 -1.5996 8.16352 -11.9876 13.0979 -5.32907e-015 -44.3705 0.2846 2.97969 13.8568 1.7999 0 -44.4279 -2.9822 -9.45679 -4.50834 -0.0881829 -1.77636e-015 -8.7287 10.7106 3.64667e-008 0.367139 4.97229e-006 -8.2078 -6.7517 -1.5996 -7.85431 -14.4307 -9.15073 0 -44.3705 0.2862 -1.73756 15.9058 -3.80282 0 -44.4277 -2.9838 8.46499 -4.53122 0.387454 3.55271e-015 -8.7287 10.7106 1.35955e-006 0.49686 9.19225e-006 
0.770428 102.324 22.0481 0.271811 4.68407 -1.43091 0 10.1816 0.1315 -0.0343859 -0.769338 -0.359374 0 10.0835 -1.0008 0.369232 1.67556 -0.359416 0 9.1 -1.3734 0.368125 1.6755 -0.362919 0 16.6717 -2.5162 3.84289 -19.0402 -0.0555331 1.77636e-015 9.6179 1.685 -7.24987 16.8174 4.15854 -8.88178e-016 17.8152 2.585 2.48481e-016 7.95139e-016 -1.49089e-016 3.0676 6.4095 9.2836 2.48481e-016 7.95139e-016 -1.49089e-016 -3.0676 6.4095 9.2835 2.48481e-016 7.95139e-016 -1.49089e-016 4.5704 10.946 -2.628 22.3672 5.5403 16.1519 10.5924 -0.5246 -2.2321 -20.2326 -41.8486 -111.562 27.8415 -0.0001 0 -0.000200615 2.88561e-006 -6.37902e-006 28.3288 -2.84217e-014 -7.10543e-015 -6.91241 -22.7708 0.35086 2.4661 -1.575 2.6824 -1.71884 54.9998 -56.8187 3.2298 -1.8647 1.8647 -19.3643 15.662 29.4066 2.6526 -1.5315 1.5315 19.1102 17.2479 34.3983 9.1093 -0.5171 2.2601 -67.5315 -5.77602 3.52955 3.6764 0 -3.55271e-015 -36.5932 -1.15322 3.48675 2.8831 0 0 -40.0214 -1.37036 3.76171 9.5334 2.84217e-014 3.55271e-015 -68.5773 -5.8963 4.49519 3.6982 0 0 -38.9454 -1.30044 3.6768 2.9509 0 1.33227e-015 -48.9008 -2.00559 4.40927 9.1045 -0.0439 -1.8651 -71.7424 -6.25053 7.01614 3.154 0 0 -34.3901 -1.02252 3.30344 2.9377 0 0 -49.588 -2.05882 4.45517 8.0778 -0.4887 -3.8061 -65.7952 -10.4673 10.41 3.6 0 1.77636e-015 -28.3147 -0.699754 2.77361 2.1142 0 -8.88178e-016 -28.9033 -0.728546 2.8264 -4.57 10.9462 -2.628 -24.375 3.06801 -9.60085 -10.5928 -0.5248 -2.2321 22.9991 -39.796 105.95 -27.8415 1.42109e-014 7.10543e-015 -4.69995e-006 2.78383e-006 0.000320197 -28.3288 0 0.0001 23.0938 -28.2599 14.5156 -8.0767 -0.4885 -3.806 49.6969 -3.35554 -4.7122 -3.6 -2.84217e-014 0.0001 34.6856 -0.824226 -2.64051 -2.1142 0 -3.55271e-015 40.8318 -1.13013 -3.03564 -9.1036 -0.0439 -1.8651 59.5799 -4.23685 -2.36868 -3.154 0 -1.06581e-014 35.6736 -0.871266 -2.70726 -2.9377 0 3.55271e-015 57.7771 -2.16846 -3.92896 -9.5325 2.84217e-014 -3.55271e-015 58.5969 -4.1495 -2.88199 -3.6982 -2.84217e-014 3.55271e-015 43.475 -1.27397 -3.19457 -2.9509 0 7.10543e-015 53.037 -1.852 -3.71258 -9.1083 -0.5168 2.2601 49.5381 -2.92003 -4.27504 -3.6764 0 0 46.323 -1.43699 -3.35822 -2.8831 1.42109e-014 -3.55271e-015 35.0659 -0.842756 -2.66709 -2.4648 -1.5727 2.6826 17.308 48.9772 22.468 -3.2298 -1.8647 1.8647 -4.88454 18.5535 -19.2694 -2.6526 -1.5314 1.5314 -18.2497 15.4703 -32.4138 8.2078 -6.7517 -1.5996 8.0337 -12.184 12.9435 0 -44.3705 0.2846 3.05705 13.7003 1.98571 3.55271e-015 -44.4279 -2.9822 -9.4899 -4.30497 -0.101942 -3.55271e-015 -8.7287 10.7106 -9.55869e-007 0.367138 8.28952e-006 -8.2078 -6.7517 -1.5996 -7.92266 -14.6923 -9.12024 3.55271e-015 -44.3705 0.2862 -1.72102 15.9147 -3.89374 1.77636e-015 -44.4277 -2.9838 8.43488 -4.42261 0.391174 1.77636e-015 -8.7287 10.7106 1.35955e-006 0.49686 9.19225e-006 
0.764995 102.34 21.7293 0.342342 4.81157 -1.40317 2.22045e-016 10.1816 0.1315 -0.0125791 -0.734891 -0.3548 2.22045e-016 10.0835 -1.0008 0.383495 1.6906 -0.354549 0 9.1 -1.3734 0.382595 1.69049 -0.358544 0 16.6717 -2.5162 3.61687 -18.9337 -0.0337634 1.77636e-015 9.6179 1.685 -7.0925 16.689 4.03523 8.88178e-016 17.8152 2.585 8.07563e-017 -1.59028e-015 9.93923e-017 3.0676 6.4095 9.2836 8.07563e-017 -1.59028e-015 9.93923e-017 -3.0676 6.4095 9.2835 8.07563e-017 -1.59028e-015 9.93923e-017 4.5704 10.946 -2.628 21.6942 5.42712 15.981 10.5924 -0.5246 -2.2321 -19.5478 -41.5082 -111.432 27.8415 -0.0001 -7.10543e-015 -0.000207198 -3.37045e-006 1.23522e-005 28.3288 2.84217e-014 -7.10543e-015 -7.34484 -21.8966 0.288338 2.4661 -1.575 2.6824 -1.71884 54.9998 -56.8187 3.2298 -1.8647 1.8647 -19.3643 15.662 29.4066 2.6526 -1.5315 1.5315 19.1102 17.2479 34.3983 9.1093 -0.5171 2.2601 -67.5315 -5.77602 3.52955 3.6764 0 -8.88178e-016 -36.5932 -1.15322 3.48675 2.8831 0 0 -40.0214 -1.37036 3.76171 9.5334 0 -3.55271e-015 -68.5773 -5.8963 4.49519 3.6982 0 0 -38.9454 -1.30044 3.6768 2.9509 0 -8.88178e-016 -48.9008 -2.00559 4.40927 9.1045 -0.0439 -1.8651 -71.7424 -6.25053 7.01614 3.154 0 0 -34.3901 -1.02252 3.30344 2.9377 0 0 -49.588 -2.05882 4.45517 8.0778 -0.4887 -3.8061 -65.7952 -10.4673 10.41 3.6 0 1.77636e-015 -28.3147 -0.699754 2.77361 2.1142 0 8.88178e-016 -28.9033 -0.728546 2.8264 -4.57 10.9462 -2.628 -24.285 3.01252 -9.47989 -10.5928 -0.5248 -2.2321 23.3123 -38.9814 106.358 -27.8415 1.42109e-014 7.10543e-015 5.36846e-007 2.75271e-006 -0.000192288 -28.3288 0 0.0001 22.9699 -28.5087 14.4359 -8.0767 -0.4885 -3.806 49.6969 -3.35554 -4.7122 -3.6 0 0.0001 34.6856 -0.824226 -2.64051 -2.1142 0 7.10543e-015 40.8318 -1.13013 -3.03564 -9.1036 -0.0439 -1.8651 59.5799 -4.23685 -2.36868 -3.154 0 7.10543e-015 35.6736 -0.871266 -2.70726 -2.9377 0 3.55271e-015 57.7771 -2.16846 -3.92896 -9.5325 0 -3.55271e-015 58.5969 -4.1495 -2.88199 -3.6982 0 0 43.475 -1.27397 -3.19457 -2.9509 0 3.55271e-015 53.037 -1.852 -3.71258 -9.1083 -0.5168 2.2601 49.5381 -2.92003 -4.27504 -3.6764 2.84217e-014 3.55271e-015 46.323 -1.43699 -3.35822 -2.8831 0 3.55271e-015 35.0659 -0.842756 -2.66709 -2.4648 -1.5727 2.6826 17.308 48.9772 22.468 -3.2298 -1.8647 1.8647 -4.88454 18.5535 -19.2694 -2.6526 -1.5314 1.5314 -18.2497 15.4703 -32.4138 8.2078 -6.7517 -1.5996 7.88032 -12.4331 12.7757 0 -44.3705 0.2846 3.14803 13.4666 2.1663 3.55271e-015 -44.4279 -2.9822 -9.49417 -3.96419 -0.0975406 1.77636e-015 -8.7287 10.7106 2.55613e-006 0.367138 3.33896e-006 -8.2078 -6.7517 -1.5996 -8.01102 -14.9844 -9.10726 1.77636e-015 -44.3705 0.2862 -1.66736 15.8272 -3.99518 3.55271e-015 -44.4277 -2.9838 8.36299 -4.16921 0.374914 1.77636e-015 -8.7287 10.7106 1.35955e-006 0.49686 9.19225e-006 
0.766235 102.381 21.2336 0.416798 4.90056 -1.33366 0 10.1816 0.1315 0.00183964 -0.669186 -0.346073 2.22045e-016 10.0835 -1.0008 0.392592 1.7238 -0.344506 0 9.1 -1.3734 0.391939 1.72366 -0.348862 0 16.6717 -2.5162 3.45315 -18.8486 -0.0176323 1.77636e-015 9.6179 1.685 -6.92133 16.3008 3.90282 0 17.8152 2.585 5.40446e-016 1.59028e-015 4.96962e-017 3.0676 6.4095 9.2836 5.40446e-016 1.59028e-015 4.96962e-017 -3.0676 6.4095 9.2835 5.40446e-016 1.59028e-015 4.96962e-017 4.5704 10.946 -2.628 20.8827 5.21783 15.2785 10.5924 -0.5246 -2.2321 -18.8831 -40.6132 -111.237 27.8415 -0.0001 0 -0.000204348 1.67056e-006 -6.45273e-006 28.3288 1.42109e-014 0 -8.12019 -20.3617 0.451367 2.4661 -1.575 2.6824 -1.71884 54.9998 -56.8187 3.2298 -1.8647 1.8647 -19.3643 15.662 29.4066 2.6526 -1.5315 1.5315 19.1102 17.2479 34.3983 9.1093 -0.5171 2.2601 -67.5315 -5.77602 3.52955 3.6764 0 -2.66454e-015 -36.5932 -1.15322 3.48675 2.8831 0 -4.44089e-016 -40.0214 -1.37036 3.76171 9.5334 -2.84217e-014 0 -68.5773 -5.8963 4.49519 3.6982 0 -8.88178e-016 -38.9454 -1.30044 3.6768 2.9509 0 0 -48.9008 -2.00559 4.40927 9.1045 -0.0439 -1.8651 -71.7424 -6.25053 7.01614 3.154 -2.84217e-014 0 -34.3901 -1.02252 3.30344 2.9377 0 -1.77636e-015 -49.588 -2.05882 4.45517 8.0778 -0.4887 -3.8061 -65.7952 -10.4673 10.41 3.6 0 0 -28.3147 -0.699754 2.77361 2.1142 -1.42109e-014 -8.88178e-016 -28.9033 -0.728546 2.8264 -4.57 10.9462 -2.628 -23.8378 2.89832 -9.04982 -10.5928 -0.5248 -2.2321 23.6443 -37.5836 106.816 -27.8415 -1.42109e-014 0 1.92155e-007 2.52572e-006 -0.000191443 -28.3288 0 0.0001 23.0977 -28.3529 14.3055 -8.0767 -0.4885 -3.806 49.6969 -3.35554 -4.7122 -3.6 0 0.0001 34.6856 -0.824226 -2.64051 -2.1142 0 -3.55271e-015 40.8318 -1.13013 -3.03564 -9.1036 -0.0439 -1.8651 59.5799 -4.23685 -2.36868 -3.154 2.84217e-014 0 35.6736 -0.871266 -2.70726 -2.9377 -1.42109e-014 3.55271e-015 57.7771 -2.16846 -3.92896 -9.5325 0 -3.55271e-015 58.5969 -4.1495 -2.88199 -3.6982 0 0 43.475 -1.27397 -3.19457 -2.9509 0 3.55271e-015 53.037 -1.852 -3.71258 -9.1083 -0.5168 2.2601 49.5381 -2.92003 -4.27504 -3.6764 -2.84217e-014 3.55271e-015 46.323 -1.43699 -3.35822 -2.8831 0 7.10543e-015 35.0659 -0.842756 -2.66709 -2.4648 -1.5727 2.6826 17.308 48.9772 22.468 -3.2298 -1.8647 1.8647 -4.88454 18.5535 -19.2694 -2.6526 -1.5314 1.5314 -18.2497 15.4703 -32.4138 8.2078 -6.7517 -1.5996 7.68062 -12.6691 12.5667 0 -44.3705 0.2846 3.25423 13.0314 2.35285 -3.55271e-015 -44.4279 -2.9822 -9.46605 -3.41119 -0.0747517 -3.55271e-015 -8.7287 10.7106 -2.66641e-006 0.367138 6.23525e-009 -8.2078 -6.7517 -1.5996 -8.10375 -15.2483 -9.11396 -3.55271e-015 -44.3705 0.2862 -1.6027 15.5534 -4.12874 -1.77636e-015 -44.4277 -2.9838 8.25639 -3.71764 0.341321 -3.55271e-015 -8.7287 10.7106 1.35955e-006 0.49686 9.19225e-006 
